<?xml version="1.0" encoding="utf-8"?>
<!-- Generator: Adobe Illustrator 23.0.6, SVG Export Plug-In . SVG Version: 6.00 Build 0)  -->
<svg version="1.1" id="레이어_1" xmlns="http://www.w3.org/2000/svg" xmlns:xlink="http://www.w3.org/1999/xlink" x="0px"
	 y="0px" viewBox="0 0 457.14 88.04" style="enable-background:new 0 0 457.14 88.04;" xml:space="preserve">
<style type="text/css">
	.st0{fill:#51534A;}
	.st1{fill:#62CBC9;}
</style>
<g>
	<g>
		<path class="st0" d="M21.61,64.78H58.7v3.92H12.21V15.75c0-2.94-0.44-5.31-1.31-7.11c-0.87-1.8-2.87-2.7-6.01-2.7H2.81V3.98h9.4
			c1.81,0,3.32,0.15,4.54,0.44c1.22,0.3,2.19,0.88,2.92,1.77c0.73,0.88,1.24,2.09,1.52,3.63c0.28,1.54,0.42,3.52,0.42,5.93V64.78z"
			/>
	</g>
	<g>
		<path class="st0" d="M77.92,68.71h-9.4V34.38c0-2.94-0.43-5.31-1.31-7.11c-0.87-1.8-2.87-2.7-6.01-2.7h-2.09v-1.96h9.4
			c1.81,0,3.32,0.15,4.54,0.44c1.22,0.29,2.19,0.88,2.93,1.77c0.73,0.88,1.23,2.09,1.51,3.63c0.28,1.54,0.42,3.52,0.42,5.93V68.71z"
			/>
	</g>
	<g>
		<path class="st0" d="M145.09,3.98l-44.4,60.81h42.83v3.92H87.63v-1.96L130.99,7.9h-25.07c-4.18,0-7.4,0.9-9.66,2.7
			c-2.26,1.8-3.39,4.66-3.39,8.58h-2.09v-7.36c0-0.98,0.12-1.95,0.37-2.89c0.24-0.95,0.69-1.78,1.36-2.5
			c0.66-0.72,1.57-1.31,2.72-1.76c1.15-0.46,2.63-0.69,4.44-0.69H145.09z"/>
	</g>
	<path class="st1" d="M196.84,62.93V18.79h-10.81L150.7,64.01v6.14h33.43v16.67h12.7V70.15h9.4v-7.22H196.84z M162.01,62.93
		l22.12-28.28v28.28H162.01z"/>
	<g>
		<path class="st0" d="M248.61,3.98c1.81,0,3.29,0.23,4.44,0.69c1.15,0.46,2.05,1.05,2.72,1.76c0.66,0.72,1.11,1.55,1.36,2.5
			c0.24,0.95,0.37,1.91,0.37,2.89v7.36h-2.09c0-3.92-1.13-6.78-3.4-8.58c-2.26-1.8-5.48-2.7-9.66-2.7h-19.43v25.5h28.21v3.92h-28.21
			v27.46h18.28c4.73,0,8.48-0.82,11.23-2.45c2.75-1.63,4.93-4.41,6.53-8.34l2.09,0.49l-3.66,9.32c-0.56,1.5-1.48,2.7-2.77,3.58
			c-1.29,0.88-2.98,1.32-5.07,1.32h-36.04V15.75c0-2.94-0.43-5.31-1.31-7.11c-0.87-1.8-2.87-2.7-6.01-2.7h-2.09V3.98H248.61z"/>
	</g>
	<g>
		<path class="st0" d="M300.64,54.98c1.74-3.79,3.19-6.9,4.34-9.32c1.15-2.42,2.09-4.45,2.82-6.08c0.73-1.63,1.34-3.01,1.83-4.12
			c0.48-1.11,0.97-2.21,1.46-3.29c0.49-1.08,1.01-2.27,1.57-3.58c0.56-1.31,1.31-3.01,2.25-5.1c0.94-2.09,2.11-4.69,3.5-7.8
			c1.39-3.1,3.14-7.01,5.22-11.72h5.01l-29.98,65.71h-1.88l-24.24-54.24c-0.84-1.83-1.62-3.38-2.35-4.66
			c-0.73-1.27-1.55-2.3-2.46-3.09c-0.91-0.78-1.88-1.37-2.93-1.77c-1.04-0.39-2.3-0.65-3.76-0.78V3.19c0.28,0,0.82-0.03,1.62-0.1
			c0.8-0.06,1.45-0.1,1.93-0.1c1.25,0,2.68,0.13,4.29,0.39c1.6,0.26,3.22,0.82,4.86,1.67c1.64,0.85,3.24,2.09,4.8,3.73
			c1.57,1.64,2.98,3.86,4.23,6.67L300.64,54.98z"/>
	</g>
	<g>
		<path class="st0" d="M377.11,3.98c1.81,0,3.29,0.23,4.44,0.69c1.15,0.46,2.05,1.05,2.72,1.76c0.66,0.72,1.11,1.55,1.36,2.5
			c0.24,0.95,0.36,1.91,0.36,2.89v7.36h-2.09c0-3.92-1.13-6.78-3.4-8.58c-2.26-1.8-5.48-2.7-9.66-2.7h-19.43v25.5h28.2v3.92h-28.2
			v27.46h18.28c4.74,0,8.48-0.82,11.23-2.45c2.75-1.63,4.93-4.41,6.53-8.34l2.09,0.49l-3.66,9.32c-0.56,1.5-1.48,2.7-2.77,3.58
			c-1.29,0.88-2.98,1.32-5.07,1.32h-36.04V15.75c0-2.94-0.44-5.31-1.31-7.11c-0.87-1.8-2.87-2.7-6.01-2.7h-2.09V3.98H377.11z"/>
	</g>
	<g>
		<path class="st0" d="M420.36,38.79h-7.31v29.91h-9.4V15.75c0-2.94-0.44-5.31-1.31-7.11c-0.87-1.8-2.87-2.7-6.01-2.7h-2.09V3.98
			h27.16c2.23,0,4.84,0.18,7.83,0.54c2.99,0.36,5.85,1.16,8.57,2.4c2.72,1.24,5.01,3.03,6.9,5.35c1.88,2.32,2.82,5.44,2.82,9.37
			c0,2.81-0.52,5.2-1.57,7.16c-1.05,1.96-2.39,3.58-4.02,4.85c-1.64,1.27-3.45,2.27-5.43,2.99c-1.98,0.72-3.88,1.27-5.69,1.67
			l10.97,17.16c1.32,2.09,2.56,3.82,3.71,5.2c1.15,1.37,2.28,2.5,3.4,3.38c1.11,0.88,2.23,1.52,3.34,1.91
			c1.11,0.39,2.33,0.65,3.66,0.78v1.96c-0.56,0.26-1.41,0.49-2.56,0.69c-1.15,0.2-2.39,0.29-3.71,0.29c-1.81,0-3.5-0.23-5.07-0.69
			c-1.57-0.46-3.08-1.24-4.54-2.35c-1.46-1.11-2.94-2.58-4.44-4.41c-1.5-1.83-3.08-4.09-4.75-6.77L420.36,38.79z M420.88,35.36
			c1.46,0,3.12-0.26,4.96-0.78c1.84-0.52,3.61-1.32,5.28-2.4c1.67-1.08,3.08-2.48,4.23-4.22c1.15-1.73,1.72-3.84,1.72-6.33
			c0-2.55-0.58-4.74-1.72-6.57c-1.15-1.83-2.56-3.3-4.23-4.41c-1.67-1.11-3.43-1.93-5.28-2.45c-1.85-0.52-3.5-0.78-4.96-0.78
			c-1.32,0-2.7,0.1-4.13,0.29c-1.43,0.2-2.66,0.43-3.71,0.69v25.99c1.04,0.26,2.28,0.49,3.71,0.69
			C418.18,35.26,419.56,35.36,420.88,35.36z"/>
	</g>
	<path class="st1" d="M70.25,0.97c-2.51,6.08-5.55,10.66-9.38,16.37l5.81,0.25c4.66-6.32,6.34-10.04,9.56-16.45L70.25,0.97z"/>
</g>
</svg>
