<?xml version="1.0" encoding="utf-8"?>
<!-- Generator: Adobe Illustrator 23.0.6, SVG Export Plug-In . SVG Version: 6.00 Build 0)  -->
<svg version="1.1" id="디자인" xmlns="http://www.w3.org/2000/svg" xmlns:xlink="http://www.w3.org/1999/xlink" x="0px" y="0px"
	 viewBox="0 0 81.9 15.9" style="enable-background:new 0 0 81.9 15.9;" xml:space="preserve">
<style type="text/css">
	.st0{fill:#1C1C1C;}
</style>
<g id="XMLID_27768_">
	<g id="XMLID_27769_">
		<g id="XMLID_27781_">
			<path id="XMLID_27784_" class="st0" d="M58.2,7.9c0.6-0.3,1-0.9,1-1.7V3.7c0-0.5-0.2-1-0.5-1.3c-0.4-0.4-0.9-0.6-1.4-0.6h-3.9
				v12.7h4.1c0.5,0,1-0.2,1.3-0.5c0.4-0.4,0.6-0.9,0.6-1.4V9.7C59.4,8.8,58.9,8.1,58.2,7.9 M55.5,3.7h1.3c0.1,0,0.3,0.1,0.3,0.3v2.7
				C57.1,6.8,57,7,56.8,7h-1.3V3.7z M57.3,12.3c0,0.1-0.1,0.3-0.3,0.3h-1.5V8.9h1c0.4,0,0.7,0.3,0.7,0.7V12.3z"/>
			<path id="XMLID_27783_" class="st0" d="M75.9,5.7V3.7c0-0.5-0.2-1-0.6-1.4C75,2,74.5,1.8,74,1.8H72c-0.5,0-1,0.2-1.4,0.6
				c-0.4,0.4-0.6,0.8-0.6,1.4v2.2c0,1.3,1,2,1.8,2.6l1.5,1c0.1,0.1,0.4,0.4,0.4,0.7v2.1c0,0.1-0.1,0.3-0.3,0.3h-1.1
				c-0.2,0-0.3-0.1-0.3-0.3v-2.1h-2.1v2.3c0,0.5,0.2,1,0.6,1.4c0.4,0.4,0.8,0.6,1.4,0.6H74c0.5,0,1-0.2,1.4-0.6
				c0.4-0.4,0.6-0.8,0.6-1.4V10c0-1.3-0.9-2-1.9-2.7l-1.5-0.9c-0.2-0.1-0.4-0.4-0.4-0.7V4c0-0.1,0.1-0.3,0.3-0.3h1.1
				c0.1,0,0.3,0.1,0.3,0.3v1.7L75.9,5.7L75.9,5.7z"/>
			<polygon id="XMLID_27782_" class="st0" points="61,1.8 61.7,3.7 63.7,3.7 63.7,14.5 64.7,14.5 65.8,14.5 65.8,3.7 67.8,3.7 
				68.5,1.8 			"/>
		</g>
		<polygon id="XMLID_27780_" class="st0" points="49.8,5 49.5,4.8 46.4,7.9 43.3,4.8 43.1,5 46.2,8.1 43.1,11.2 43.3,11.5 46.4,8.4 
			49.5,11.5 49.8,11.2 46.7,8.1 		"/>
		<g id="XMLID_27770_">
			<g id="XMLID_27772_">
				<polygon id="XMLID_27779_" class="st0" points="13.1,5 16,5 16,13.2 18.3,13.2 18.3,5 21.1,5 21.1,3.1 13.1,3.1 				"/>
				<path id="XMLID_27776_" class="st0" d="M28.7,3.7c-0.4-0.2-0.8-0.4-1.2-0.5c-0.5-0.1-1-0.1-1.5-0.1h-3.8v10.1h2.2V9.2h1.6
					c0.5,0,1-0.1,1.5-0.1c0.5-0.1,0.9-0.3,1.2-0.5c0.3-0.2,0.6-0.6,0.8-1c0.2-0.4,0.3-0.9,0.3-1.5c0-0.6-0.1-1.1-0.3-1.5
					C29.4,4.3,29.1,3.9,28.7,3.7z M27.4,6.7c-0.1,0.2-0.2,0.3-0.4,0.4c-0.1,0.1-0.3,0.2-0.5,0.2S26.2,7.4,26,7.4h-1.5V5h1.1
					c0.2,0,0.4,0,0.7,0c0.2,0,0.4,0.1,0.6,0.2c0.2,0.1,0.3,0.2,0.5,0.4c0.1,0.2,0.2,0.4,0.2,0.6C27.6,6.4,27.5,6.6,27.4,6.7z"/>
				<path id="XMLID_27773_" class="st0" d="M36.8,8.9c0.7-0.1,1.3-0.4,1.6-0.9C38.8,7.5,39,6.9,39,6.1c0-0.6-0.1-1.1-0.3-1.5
					c-0.2-0.4-0.5-0.7-0.8-0.9c-0.3-0.2-0.8-0.4-1.2-0.5s-1-0.2-1.5-0.2h-3.9v10.1h2.2V9.1h1.1l2.1,4.1h2.7L36.8,8.9z M36.5,6.8
					c-0.1,0.2-0.3,0.3-0.5,0.3c-0.2,0.1-0.4,0.1-0.6,0.1c-0.2,0-0.4,0-0.6,0h-1.3V5H35c0.2,0,0.4,0,0.6,0c0.2,0,0.4,0.1,0.6,0.2
					s0.3,0.2,0.4,0.3c0.1,0.2,0.2,0.4,0.2,0.6C36.7,6.4,36.6,6.6,36.5,6.8z"/>
			</g>
			<polygon id="XMLID_27771_" class="st0" points="9.4,3.1 7,6.7 4.6,3.1 2.1,3.1 2.1,13.2 4.3,13.2 4.3,6.5 7,10.6 9.7,6.5 
				9.7,13.2 11.9,13.2 11.9,3.1 			"/>
		</g>
	</g>
</g>
</svg>
