<?xml version="1.0" encoding="utf-8"?>
<!-- Generator: Adobe Illustrator 23.0.6, SVG Export Plug-In . SVG Version: 6.00 Build 0)  -->
<svg version="1.1" id="디자인" xmlns="http://www.w3.org/2000/svg" xmlns:xlink="http://www.w3.org/1999/xlink" x="0px" y="0px"
	 viewBox="0 0 81.88 15.85" style="enable-background:new 0 0 81.88 15.85;" xml:space="preserve">
<style type="text/css">
	.st0{fill:#FFFFFF;}
</style>
<g id="XMLID_27768_">
	<g id="XMLID_27769_">
		<g id="XMLID_27781_">
			<path id="XMLID_27784_" class="st0" d="M58.23,7.88c0.61-0.3,1.01-0.95,1.01-1.7V3.72c0-0.49-0.19-0.97-0.54-1.34
				c-0.36-0.38-0.88-0.6-1.4-0.6h-3.89v12.72h4.06c0.49,0,0.97-0.19,1.34-0.54c0.38-0.36,0.6-0.87,0.6-1.4V9.67
				C59.42,8.79,58.86,8.13,58.23,7.88 M55.53,3.73h1.32c0.13,0,0.26,0.13,0.26,0.26v2.73c0,0.13-0.13,0.26-0.26,0.26h-1.32V3.73z
				 M57.29,12.28c0,0.13-0.13,0.26-0.26,0.26h-1.49V8.93h1.05c0.36,0,0.7,0.34,0.7,0.7V12.28z"/>
			<path id="XMLID_27783_" class="st0" d="M75.91,5.66V3.72c0-0.52-0.19-0.99-0.56-1.36c-0.38-0.38-0.86-0.58-1.38-0.58h-1.94
				c-0.53,0-0.99,0.19-1.36,0.56c-0.38,0.36-0.59,0.84-0.59,1.38v2.22c0,1.35,0.97,2,1.83,2.57l1.52,1.01
				c0.14,0.09,0.36,0.36,0.36,0.71v2.05c0,0.13-0.13,0.26-0.26,0.26h-1.06c-0.15,0-0.26-0.14-0.26-0.26v-2.05h-2.13v2.31
				c0,0.54,0.2,1.02,0.58,1.38c0.37,0.38,0.83,0.57,1.36,0.57h1.94c0.52,0,1-0.2,1.38-0.58c0.37-0.37,0.56-0.84,0.56-1.36V9.99
				c0-1.33-0.92-2.04-1.87-2.66l-1.48-0.93c-0.17-0.12-0.36-0.37-0.36-0.73V3.99c0-0.13,0.13-0.26,0.26-0.26h1.06
				c0.13,0,0.26,0.13,0.26,0.26v1.68H75.91z"/>
			<polygon id="XMLID_27782_" class="st0" points="61.01,1.78 61.72,3.73 63.68,3.73 63.68,14.49 64.74,14.49 65.81,14.49 
				65.81,3.73 67.77,3.73 68.48,1.78 			"/>
		</g>
		<polygon id="XMLID_27780_" class="st0" points="49.75,5.03 49.51,4.79 46.41,7.89 43.31,4.79 43.06,5.03 46.16,8.13 43.06,11.23 
			43.31,11.48 46.41,8.38 49.51,11.48 49.75,11.23 46.65,8.13 		"/>
		<g id="XMLID_27770_">
			<g id="XMLID_27772_">
				<polygon id="XMLID_27779_" class="st0" points="13.14,5.05 16.03,5.05 16.03,13.19 18.26,13.19 18.26,5.05 21.15,5.05 
					21.15,3.07 13.14,3.07 				"/>
				<path id="XMLID_27776_" class="st0" d="M28.74,3.71c-0.35-0.23-0.76-0.4-1.22-0.49c-0.47-0.09-0.96-0.14-1.49-0.14h-3.76v10.12
					h2.23V9.25h1.63c0.53,0,1.03-0.05,1.49-0.15c0.46-0.1,0.85-0.27,1.19-0.51c0.33-0.24,0.6-0.56,0.79-0.96
					c0.19-0.4,0.29-0.9,0.29-1.49c0-0.6-0.1-1.1-0.31-1.49C29.37,4.26,29.09,3.94,28.74,3.71z M27.43,6.74
					c-0.09,0.16-0.21,0.28-0.36,0.37c-0.15,0.09-0.31,0.15-0.5,0.19c-0.19,0.04-0.38,0.06-0.58,0.06h-1.49v-2.4h1.14
					c0.21,0,0.43,0.01,0.66,0.04c0.23,0.02,0.44,0.08,0.62,0.16c0.19,0.09,0.34,0.21,0.46,0.36c0.12,0.16,0.18,0.37,0.18,0.62
					C27.57,6.39,27.52,6.58,27.43,6.74z"/>
				<path id="XMLID_27773_" class="st0" d="M36.83,8.92c0.71-0.13,1.26-0.45,1.63-0.95c0.37-0.5,0.56-1.11,0.56-1.82
					c0-0.59-0.1-1.08-0.31-1.48c-0.2-0.4-0.48-0.71-0.83-0.94c-0.35-0.23-0.75-0.4-1.21-0.5c-0.46-0.1-0.95-0.15-1.47-0.15h-3.92
					v10.12h2.23V9.15h1.1l2.12,4.05h2.67L36.83,8.92z M36.52,6.78c-0.12,0.15-0.27,0.26-0.45,0.34c-0.18,0.07-0.38,0.11-0.61,0.13
					c-0.22,0.01-0.44,0.02-0.64,0.02h-1.32v-2.3h1.46c0.2,0,0.41,0.01,0.61,0.04c0.21,0.03,0.4,0.08,0.56,0.16
					c0.16,0.08,0.3,0.2,0.4,0.35c0.11,0.15,0.16,0.36,0.16,0.61C36.7,6.41,36.64,6.62,36.52,6.78z"/>
			</g>
			<polygon id="XMLID_27771_" class="st0" points="9.36,3.07 6.99,6.73 4.61,3.07 2.07,3.07 2.07,13.19 4.3,13.19 4.3,6.52 
				6.99,10.64 9.68,6.52 9.68,13.19 11.91,13.19 11.91,3.07 			"/>
		</g>
	</g>
</g>
</svg>
